# xmcd
# Copyright (C) 1995-1998 Ti Kan
#
# Track frame offsets:
#       150
#       17736
#       35276
#       52558
#       62203
#       77563
#       91529
#
# Disc length: 1464 seconds
#
# Revision: 0
# Processed by: cddbd v1.5.2PL0 Copyright (c) Steve Scherf et al.
# Submitted via: CD-Import v1.0
#
DISCID=3f05b607
DTITLE=Gipsy Rufina - End Of Decade
DYEAR=10
DGENRE=
TTITLE0=Freak Fuck
TTITLE1=My Place Calls Blood
TTITLE2=Sea Monster
TTITLE3=Creepy Glue
TTITLE4=Wild Boar
TTITLE5=Shit On The Table
TTITLE6=The Beach Of Your Heart
EXTD=
EXTT0=
EXTT1=
EXTT2=
EXTT3=
EXTT4=
EXTT5=
EXTT6=
PLAYORDER=
